<svg xmlns="http://www.w3.org/2000/svg" width="32" height="32" viewBox="0 0 32 32"><path class="icon" d="M16 0C7.2 0 0 7.2 0 16c0 8.8 7.2 16 16 16 8.8 0 16-7.2 16-16C32 7.2 24.8 0 16 0zM22.9 13c0 0.7 0 1 0 1 -3.1 13.2-14.4 7.4-14.4 7.4 4.1 0.1 4.5-1.6 4.5-1.6 -2.4-0.4-2.9-1.9-2.9-1.9 0.8 0.4 1.3-0.3 1.3-0.3 -2.6-0.7-2.2-3.2-2.2-3.2 0.4 0.4 1.2 0.5 1.6 0.6 -0.3-0.4-2.7-3.3-1.2-4.8 0 0 1.8 3.2 6.5 3.5l0.3-0.1c-0.1-0.2-0.1-0.4-0.1-0.7 0-1.9 1.5-3.4 3.4-3.4 2.2 0 2.7 1.3 2.7 1.3l1.6-1c0 0-0.2 1.6-1 1.9l1.6-0.3C24.5 11.4 23.2 12.9 22.9 13z" /></svg>
