<svg xmlns="http://www.w3.org/2000/svg" width="200" height="200" viewBox="0 0 200 200"><style>.a{fill:#FFF;}</style><path d="M129.7 43.1h12.6l11.7 12.3 -44.6 83.9h-0.5L63.9 55.4l12.1-12.3h13.4v-3.3H19.9v1.4c4.8-0.2 9.6 0.8 14 3 3.9 2.3 7.1 5.7 9 9.8 0.2 0.3 0.4 0.6 0.4 0.9l58.8 104.9h1.7l49.8-96.8c0.1-0.7 0.6-1.4 1.2-1.9 2.1-3.6 4.4-7.1 6.9-10.5 2-2.6 4.5-4.8 7.3-6.4 3.3-1.8 7.1-2.8 10.9-3.1v-1.4h-50.2V43.1z" class="a"/><polygon points="67.1 56.3 108.9 133.8 89.2 56.3 " class="a"/><polygon points="110.8 56.3 109 45.6 93.8 45.6 89.2 56.3 " class="a"/><polygon points="129.9 56.3 110.8 56.3 108.9 133.8 " class="a"/><polygon points="140.9 45.6 124.4 45.6 129.9 56.3 148.5 56.3 " class="a"/></svg>
