<?xml version="1.0" standalone="no"?>
<!DOCTYPE svg PUBLIC "-//W3C//DTD SVG 20010904//EN"
 "http://www.w3.org/TR/2001/REC-SVG-20010904/DTD/svg10.dtd">
<svg version="1.0" xmlns="http://www.w3.org/2000/svg"
 width="260.000000pt" height="260.000000pt" viewBox="0 0 260.000000 260.000000"
 preserveAspectRatio="xMidYMid meet">
<metadata>
Created by potrace 1.11, written by Peter Selinger 2001-2013
</metadata>
<g transform="translate(0.000000,260.000000) scale(0.100000,-0.100000)"
fill="#000000" stroke="none">
<path d="M987 2303 c-3 -5 -5 -26 -5 -48 0 -75 2 -71 -54 -70 -29 1 -57 0 -63
-2 -6 -2 -10 -71 -9 -181 0 -97 -1 -182 -3 -188 -2 -6 -29 -10 -63 -8 l-60 1
0 -63 c0 -44 4 -64 13 -65 6 -1 34 -2 62 -2 l50 -2 0 -125 1 -125 63 0 64 0 0
-40 c-1 -90 3 -84 -65 -87 l-63 -3 0 -282 0 -283 65 0 65 0 -2 -128 c-2 -212
6 -187 -60 -185 -32 0 -60 -3 -63 -8 -4 -5 -5 -32 -4 -61 l1 -53 444 0 444 0
0 60 -1 60 -62 0 c-59 0 -62 1 -63 25 0 14 -1 84 -2 155 l0 130 63 5 64 5 0
280 1 280 -65 5 -64 5 -1 60 0 60 -305 2 c-168 1 -310 2 -315 2 -7 1 -11 104
-10 314 l0 312 315 0 315 0 1 -306 c0 -168 4 -310 7 -315 5 -8 36 -10 107 -5
13 1 16 21 15 124 l0 122 40 1 c94 4 85 -3 85 67 l0 63 -52 -1 c-29 0 -58 1
-63 2 -7 2 -11 69 -10 188 0 116 -4 185 -10 186 -5 1 -30 2 -55 3 -25 2 -50 4
-56 4 -6 1 -10 26 -10 60 l1 57 -312 3 c-171 1 -314 -1 -316 -5z m628 -1225
l1 -218 -316 0 -316 0 2 218 c1 119 2 218 3 220 0 1 142 1 314 0 l312 -3 0
-217z m-380 -495 c0 -82 -3 -152 -7 -158 -5 -8 -68 -11 -110 -6 -5 1 -8 71 -8
156 l0 155 63 0 63 0 -1 -147z m255 -8 c0 -171 6 -157 -65 -157 -65 -1 -61
-12 -61 157 l0 155 63 0 63 0 0 -155z"/>
<path d="M1110 1743 c0 -69 3 -71 87 -65 l42 4 -1 62 -1 61 -64 0 -63 0 0 -62z"/>
<path d="M1369 1805 c-7 -2 -4 -125 2 -126 5 0 29 0 54 0 25 0 50 0 55 0 6 1
10 29 10 64 l0 63 -60 0 c-33 0 -61 0 -61 -1z"/>
</g>
</svg>
