<svg xmlns="http://www.w3.org/2000/svg" width="32" height="32" viewBox="0 0 32 32"><path d="M16 0C7.2 0 0 7.2 0 16c0 8.8 7.2 16 16 16 8.8 0 16-7.2 16-16C32 7.2 24.8 0 16 0zM18.9 21.3C17.9 22.4 16.5 23 14.9 23c-1.7 0-3-0.6-4.1-1.7 -1.1-1.1-1.6-2.5-1.6-4 0-1.5 0.5-2.8 1.5-4 1.1-1.2 2.5-1.8 4.2-1.8 0.7 0 1.4 0.1 2 0.3 -0.2 0.4-0.4 0.9-0.4 1.4 -0.5-0.2-1-0.3-1.5-0.3 -1.2 0-2.2 0.4-3 1.3 -0.8 0.9-1.2 1.9-1.2 3.1 0 0.8 0.2 1.5 0.6 2.2s0.9 1.2 1.5 1.6c0.4 0.2 0.9 0.4 1.4 0.5 4.2-1.6 3.6-9.7 3.6-9.9C17.6 11.2 16.9 9.2 15.5 7c0 0 1.9 1.3 2.2 4.7 0 0 0 0 0 0 0 0.1 0 0.1 0 0.1 2.4 6.5-2.9 9.8-2.9 9.8 0 0 0 0-0.1 0 0 0 0 0 0 0 0.8 0 1.5-0.2 2.1-0.6 0.6-0.4 1.2-0.9 1.5-1.6 0.4-0.7 0.6-1.4 0.6-2.2 0-0.6-0.1-1.2-0.3-1.8 0.4-0.1 0.8-0.2 1.3-0.5 0.3 0.7 0.4 1.5 0.4 2.3C20.5 18.8 20 20.1 18.9 21.3zM22.7 11.9c0 0-0.4 1.2-1.3 1.7 -0.7 0.4-1.7 0.5-2.8-0.5 0 0 3.2-1.8 3.3-3.3 0 0-1 2.2-3.7 2.8 0 0-1-1.5 0.3-2.8 0 0 0.4-0.5 1.7-0.8 0 0 1.3-0.3 1.9-1.7C22.2 7.4 23.6 9.3 22.7 11.9z" class="icon-social"/></svg>
