<svg xmlns="http://www.w3.org/2000/svg" width="220" height="220" viewBox="0 0 220 220"><path d="M85.1 23.9c1.5-1.5 3.1-2.6 5.1-3.4C91.1 20.3 91.8 20 92.6 20c1.5 0 3.9 0 5.7 0.5 1.3 0.3 2.6 1 3.9 1.8 0.8 0.5 1.5 1 2.6 1.8 1 0.8 1.8 1.8 2.3 2.8 2.1 2.6 3.3 5.9 4.1 8.8 0.5 2.1 0.8 3.9 1.3 6.2 0.5 3.6 0.3 7.7 0.3 11.4 0 2.6-0.3 4.9-0.5 7.2 -0.3 2.1-0.5 3.9-0.8 5.9 -0.3 1.5-0.8 3.4-1 4.9 -0.3 0.8-0.3 1.8-0.5 2.6 -0.3 1.5-0.8 3.1-1.3 4.9 -0.3 1.5-1 3.1-1.5 4.6 -0.5 1.8-1.3 3.6-1.8 5.4 -0.3 0.5-0.5 1.3-0.8 2.1 0 0.5 0.3 1 0.5 1.8l0.8 1.5c0.5 1.3 1 2.3 1.8 3.6 1.5 2.8 2.8 5.9 4.1 8.8 1 2.3 2.1 4.6 3.3 7 0.8 1.6 1.5 3.4 2.1 5.2 0.3 0.8 0.8 1.6 1 2.3 0 0.3 0.5 1.5 0.8 1.5 0.3 0 0.5-0.8 0.5-1 0.3-0.3 0.5-0.8 0.8-1 1.8-3.4 3.6-6.2 5.4-9.6 0.8-1.5 1.8-3.1 2.6-4.6 0.8-1.5 1.8-3.1 2.6-4.9 0.3-0.3 0.5-0.8 0.5-1 0.3-0.5 0-0.8 0-1 -0.3-1-0.3-1.8-0.5-2.6 -0.3-1.5-0.5-3.4-1-5.2 -0.8-3.6-1-8-1.3-11.9 -0.3-1.3-0.3-3.4-0.3-4.9 -0.3-3.1 0-6.5 0-9.6 0-5.9 0.8-11.9 1.5-17.8 0.3-2.1 0.8-3.9 1.3-5.7 0.5-1.3 1-2.6 1.5-4.1l1.5-3.1c0.8-1.5 1.8-3.1 2.8-4.6 1.5-2.1 3.6-4.4 5.7-6.2 1.5-1.3 3.6-2.3 5.4-2.8 1.5-0.3 3.3-0.5 4.9-0.3 1 0 1.8 0.3 2.6 0.5 2.1 0.8 4.1 2.6 5.1 4.6 0.8 1.5 1.3 3.1 1.5 4.9 0.3 1.3 0.3 2.6 0.3 3.9 0 1.8-0.3 3.1-0.3 4.6 -0.3 1.8-0.8 3.6-1 5.2 -0.5 2.8-1.5 5.9-2.3 8.5 -1.3 3.4-2.3 6.5-3.6 10.1 -1.3 3.4-2.8 6.7-4.1 9.8 -1.3 2.6-2.3 4.9-3.6 7.5 -1.3 2.6-2.6 5.2-4.1 7.7 -1 1.5-1.8 3.4-2.8 4.9 -0.5 0.8-1 1.8-1.5 2.6 -0.3 0.5-0.5 0.8-0.3 1.3 0 0.5 0.3 1 0.3 1.6 0.5 3.4 1.3 6.5 2.3 9.8 1 3.1 2.1 6.5 3.3 9.6 1 2.8 2.6 5.9 4.1 8.8 1.8 3.4 3.9 6.7 6.2 9.6 2.8 3.6 6.4 7.5 10 10.1 1.3 0.8 2.3 1.3 3.3 1.8 1 0.3 2.1 0.8 3.1 1 0.5 0 1 0.3 1.5 0.3 0.5 0 1.5 0.3 2.3 0.3 2.1 0.3 4.1 0 6.2-0.3 0.8 0 1.8-0.3 2.6-0.5 1.5-0.5 3.1-0.8 4.6-1.8 3.9-1.8 7.5-5.4 9.8-9 1.8-3.1 3.1-5.9 3.9-9.3 0.5-1.8 1-3.6 1.3-5.7 0.5-3.6 0.8-7.7 0.5-11.9 0-1.8-0.5-3.6-0.8-5.2 -0.3-0.8-0.3-1.5-0.5-2.1 -0.5-1.5-1-3.1-2.1-4.6 -1.8-3.1-5.1-6.7-8.5-8.3 -1.8-0.8-3.6-1.8-5.7-2.1 -2.3-0.5-5.1-0.3-7.5 0.3 -1.8 0.5-3.6 1.3-5.1 2.3 -0.8 0.5-1.3 0.8-1.8 1.3 -1 0.8-2.1 1.5-3.1 2.6 -1.5 1.5-2.6 3.4-3.3 5.2 -1 2.1-1.3 2.6-1.3 3.4 -0.3 1-0.5 2.3-0.5 3.4v2.8c0 0.3 0.3 0.8 0.3 1.3 0.3 0.5 0.5 1.6 0.8 2.1 0.5 1.5 1.3 3.4 2.3 4.9 0.5 0.8 1 1.6 1.8 2.3 0.8 0.8 1.5 1.8 1.8 2.6 1 3.4-4.4 2.8-5.9 1.6 -1.8-1.3-3.1-3.1-4.1-4.9 -0.8-1.5-1.3-3.4-1.5-4.9 -0.5-3.4-0.5-7.5 0.5-10.8 0.5-1.5 1-3.1 1.8-4.6 0.5-0.8 1-2.1 1.8-3.1 1-1.8 2.8-3.6 4.4-5.2 1.5-1.3 3.1-2.3 4.6-3.4 1.5-0.8 2.8-1.3 4.4-1.8l3.1-0.8c1.3-0.3 2.8-0.3 4.4-0.3 1.5 0 3.1 0.3 4.4 0.5 1 0.3 1.8 0.5 2.8 0.8 1.8 0.5 3.3 1.3 4.9 2.1 0.5 0.3 1.3 0.8 1.8 1 1 0.8 2.1 1.5 3.1 2.6 1.8 1.8 3.3 3.6 4.4 5.4 0.8 1.5 1.5 2.8 2.1 4.1 0.5 1.3 1 2.6 1.3 4.1 0.3 0.8 0.3 1.8 0.5 2.6 0.3 1.8 0.3 3.1 0.5 4.6 0.3 3.9-0.3 7.7-1 11.1 -0.3 1.8-0.8 3.6-1.3 5.4 -0.5 1.8-1.3 3.4-2.1 5.2 -0.5 1.3-1.3 2.8-2.3 4.1 -1 1.6-2.1 3.1-3.3 4.4 -1.5 1.8-3.6 3.6-5.4 4.9 -1.3 1-3.3 2.1-4.6 2.8 -1.3 0.5-2.8 1.3-4.4 1.5 -2.1 0.5-4.6 1-6.9 1.3 -2.1 0-4.1 0-5.9-0.3l-3.9-0.8c-3.6-0.8-6.7-2.3-9.8-4.4 -1.8-1.3-3.6-2.6-5.4-4.4 -1.5-1.5-3.1-3.4-4.4-4.9 -0.8-0.8-1.3-1.6-1.8-2.3 -2.1-2.6-3.9-5.7-5.4-8.8 -1.3-2.3-2.6-4.6-3.3-7.2 -0.8-1.8-1.8-3.9-2.3-5.7 -0.8-1.8-1-3.4-1.8-4.9 -0.3-0.8-0.5-1.3-0.5-2.1 0-0.3-0.5-2.6-0.8-2.6s-1.3 2.1-1.3 2.3c-0.5 1-1 2.1-1.8 3.1 -1.5 3.1-3.3 5.9-5.1 9.3 -0.8 1.3-1.5 2.8-2.3 4.1 -0.3 0.8-0.8 1.3-1 2.1 0 0.3-0.3 0.5-0.3 0.8 0 0.3 0.3 0.8 0.3 1 0.8 1.8 1.3 3.9 2.1 5.9 0.5 1.3 0.8 2.6 1.3 3.9 1 3.4 2.3 7.5 3.1 11.1 0.5 1.8 0.8 3.6 1.3 5.4 0.5 3.4 1 6.5 1.3 9.6 0.3 3.1 0.3 6.5 0.3 9.8 0 2.6-0.5 5.4-1 7.7 -0.3 1-0.5 2.3-0.8 3.1 0 0.3-0.3 0.5-0.3 1 -0.3 1-0.8 1.8-1 2.8 -0.5 1-1 2.6-1.8 3.6 -1.3 1.8-2.8 3.6-4.9 5.2 -1.3 1-2.8 1.6-4.4 2.1 -1 0.3-2.6 0.5-3.9 0.5 -1.5 0-2.6-0.5-3.6-1 -2.1-1-3.9-3.1-5.1-5.2 -0.8-1.3-1.3-2.3-1.8-3.6 -0.3-0.8-0.5-1.8-0.8-2.8 -0.3-1.3-0.8-3.4-1-4.6 -0.5-0.8-0.5-2.6-0.8-4.4 -0.3-2.3 0-4.6 0-7 0-1.8 0.3-3.9 0.5-5.7 0.3-1 0.3-2.3 0.5-3.1 0-0.5 0.3-0.8 0.3-1.3 0.5-2.8 1.5-5.9 2.3-8.5 1-3.1 2.3-6.5 3.6-9.3 1-2.3 2.1-4.6 3.6-7 0.8-1.3 1.5-2.8 2.3-4.4 0.3-0.3 0.5-0.8 0.5-1s0-0.8-0.3-1c-0.3-0.8-0.8-1.5-1-2.1 -0.8-1.8-1.8-3.6-2.6-5.4 -0.8-2.6-1.8-4.4-2.8-7 -1.3-2.3-2.6-5.2-3.9-7.5 -1-1.8-1.8-3.9-2.8-5.7 -0.3 0.3-0.5 0.8-0.5 1 -0.3 0.3-0.3 0.8-0.5 1 -0.3 0.8-0.5 1.6-1 2.3 -0.5 1.3-1.3 2.6-1.8 4.1 -1.3 2.8-2.8 5.4-4.4 8.3 -1.8 3.4-3.9 6.7-6.2 9.8 -1 1.3-2.1 2.8-3.1 4.4 -2.1 2.6-4.1 4.9-6.7 7.5 -2.3 2.3-4.6 4.1-6.9 5.9 -1.5 1-3.1 2.3-4.9 3.1 -3.1 1.5-5.9 3.1-9 3.9 -1.8 0.5-3.6 0.8-5.7 1 -1.3 0.3-3.1 0.5-4.6 0.3 -2.1 0-3.9-0.3-5.7-0.3 -3.9-0.3-7.7-1.5-11.1-2.8 -1.3-0.5-2.8-1.5-4.4-2.3 -2.1-1.5-4.4-3.4-6.2-5.4 -0.5-0.8-1-1.5-1.5-2.1 -0.5-0.8-1.3-1.8-1.8-2.8 -0.8-1.3-1.3-2.6-1.8-4.1 -0.5-1-0.8-1.8-1-2.8 -0.5-1.8-1-4.4-1.3-6.2v-3.9c0-1 0.3-2.3 0.5-3.4 0.5-3.4 1.8-6.2 3.3-8.8 0.8-1.5 1.8-3.1 2.8-4.4 1.3-1.8 3.3-3.9 5.1-5.2 0.8-0.8 1.8-1.3 2.8-2.1 0.8-0.5 1.8-1 2.6-1.3 0.8-0.3 1.8-0.8 2.8-1l3.1-0.8c1.8-0.3 4.1-0.5 6.2-0.3 1.3 0 2.8 0.3 3.9 0.5 0.5 0.3 1.3 0.3 1.8 0.5 0.8 0.3 1.3 0.5 2.1 1 1.8 1 3.6 2.6 5.1 4.4 2.3 3.1 3.6 6.7 3.6 10.6 0 1.6-0.3 3.4-0.5 4.6 -0.3 0.8-0.5 1.6-0.8 2.1 -0.8 1.8-1.8 3.4-3.1 4.9 -1.3 1.5-2.8 2.8-4.6 3.9 -1.3 0.8-2.6 1.3-4.1 1.8 -2.3 0.8-6.2 1-8.2-0.5 -1.3-1 0-2.3 1-2.6 0.5-0.3 1-0.3 1.3-0.5 1 0 1.8 0.3 3.1 0 2.1-0.3 3.9-1.3 5.7-2.8 1.5-1.3 2.8-3.4 3.3-5.4 0.3-0.5 0.3-0.8 0.5-1.3 0.3-0.8 0.5-2.1 0.5-3.1 0-1.3 0-2.8-0.3-4.1 0-0.5-0.3-1-0.3-1.5 -0.5-1.8-1.5-3.9-2.8-5.4 -3.3-3.4-8-4.4-12.6-3.4 -1.8 1.3-3.3 2.1-5.4 3.1 -1.8 1-3.6 2.3-5.1 3.9 -2.1 1.8-3.6 3.9-4.6 5.7 -1 1.6-1.8 3.4-2.3 5.2l-0.8 3.1c-0.5 1.8-0.5 3.6-0.5 5.7 0.3 2.3 0.5 4.4 1.3 6.5 0.8 2.1 1.5 3.6 2.8 5.4 1 1.8 2.6 3.6 4.1 5.2s3.3 3.1 4.9 4.1c1.5 1 3.1 1.8 4.4 2.3 1.8 0.8 3.9 1.6 5.7 1.8 1.5 0.3 3.1 0.5 4.6 0.5 1.3 0 2.6 0 3.9-0.3 0.5 0 1-0.3 1.5-0.3 3.6-0.5 6.9-1.8 10-3.4 1.8-0.8 3.1-1.8 4.9-2.8 1.8-1 3.3-2.6 4.9-4.1 1.5-1.5 3.3-3.1 4.6-4.6 0.8-1 1.8-2.1 2.6-3.1 1.3-1.5 2.3-2.8 3.3-4.6 2.3-3.6 4.6-7.2 6.7-11.1 1.3-2.3 2.3-4.6 3.3-7 1.5-3.1 3.1-6.7 4.4-9.8 0.8-1.8 1.5-3.6 2.1-5.2 0.3-0.8-0.3-1.3-0.5-1.8 -0.3-0.8-0.8-1.5-1.3-2.3 -1-2.3-2.3-4.6-3.3-7 -0.5-1.3-1.3-2.6-1.8-3.9 -0.8-1.8-1.5-3.1-2.1-5.2 -0.5-1.5-1.3-3.1-1.8-4.9 -0.5-1.5-1.3-3.4-1.5-4.9 -1-3.9-2.1-7.2-2.8-11.1 -0.3-1.3-0.5-2.8-0.5-4.1 0-2.1 0-4.1-0.3-6.5 0-2.1 0-4.4 0.3-6.2 0-1 0.3-2.1 0.5-3.1 0.3-1.5 0.8-3.1 1.5-4.6 0.3-0.5 0.5-1.5 1-2.3C83.3 25.9 84.1 24.9 85.1 23.9M106.5 50.5c0-2.3 0-4.6-0.3-6.7 -0.3-1.8-0.3-3.6-0.8-5.4 -0.3-1.8-0.8-3.4-1.5-5.2 -1-3.4-3.9-8-8-8.5 -2.6-0.5-4.4 0.3-6.2 1.8 -1.3 1-1.8 2.1-2.6 3.4 -0.5 0.8-0.8 1.8-1 2.6 -0.3 0.8-0.5 2.1-0.8 3.1 -0.3 1.8-0.3 4.1-0.3 5.9 0.3 2.3 0.5 4.9 1 7 0.8 3.1 1.8 6.2 2.8 9.3 1.3 3.4 2.6 6.2 3.9 9.6 1 2.6 2.6 5.2 3.6 7.7 0.5 1.3 1.3 2.6 1.8 3.9 0.3 0.8 0.8 1.5 1 2.3 0 0.3 0.3 0.5 0.3 0.8 0.3 0.5 0.5 0.3 0.5-0.3 1-3.1 2.1-6.7 2.8-10.1 0.5-1.8 1-3.6 1.3-5.4 0.3-2.1 0.8-4.1 1-6.2C106.2 56.7 106.5 53.6 106.5 50.5M157.4 34.2c-0.3-0.5-0.3-1.3-0.3-1.8 0-0.5-0.3-1-0.3-1.5 -0.3-0.8-0.8-1.8-1.3-2.6 -1.3-2.1-3.3-3.1-5.7-2.8 -1.8 0.3-3.6 1-5.1 2.6 -2.1 1.8-3.3 3.9-4.6 6.2 -0.8 1.5-1.5 3.1-2.1 4.6 -0.5 1.8-1 3.4-1.3 5.2 -0.5 3.4-1 7-1.3 10.3 -0.3 3.6-0.3 7.7-0.3 11.6 0 3.9 0.3 7.7 0.5 11.4 0.3 3.1 0.5 6.5 0.8 9.6 0 0.8 0.3 1.6 0.3 2.3 0.3 0 0.8-1.3 1-1.5 0.3-0.3 0.3-0.8 0.5-1 0.5-0.8 0.8-1.5 1.3-2.3 0.8-1.8 2.1-3.9 2.8-5.4 1-2.3 2.3-4.4 3.3-6.7 1.5-2.8 2.8-5.7 4.1-8.8 1.8-3.9 3.3-8 4.4-12.4 0.5-1.8 1-3.9 1.3-5.7 0.3-2.3 0.8-4.6 1.3-7.5 0-0.5 0.3-1.3 0.3-1.8C157.4 35.2 157.4 34.5 157.4 34.2M126.6 170c0-2.1-0.3-4.1-0.5-5.9 -0.3-1-0.5-1.8-0.5-2.8 -0.3-1.5-0.8-3.4-1.3-4.9 -1.3-3.6-2.3-7.2-3.6-10.6 -0.8-2.1-1.5-3.9-2.3-5.7 -0.3-1-0.8-2.1-1.3-2.8 -0.3-0.5-0.3-0.8-0.5-0.3 -0.3 0.3-0.3 0.5-0.5 0.8 -0.5 1.3-1.3 2.6-1.8 3.6l-1.5 3.1c-0.8 1.3-1.5 2.8-2.1 4.1 -0.5 1.3-1.5 2.8-2.1 4.1 -0.5 1.8-1.3 3.6-1.8 5.4 -0.5 1.8-0.8 3.1-1 4.6 -0.3 1-0.5 2.3-0.5 3.4 -0.5 3.9-0.5 7.7-0.5 11.6 0 2.6 0.3 5.2 1 7.5 0.5 1.8 1.3 3.9 2.6 5.7 1.3 1.8 3.1 2.8 5.1 2.8 1.8 0 3.1-0.3 4.4-1 0.5-0.3 1.3-0.8 1.8-1 1.8-1.3 3.3-3.4 4.1-5.2 0.8-1.5 1.3-3.1 1.8-4.6 0.5-1.8 1-3.9 1.3-5.9 0-0.5 0-1.3 0.3-1.8C126.6 173.1 126.8 171.3 126.6 170" fill="#FFF"/></svg>
