<svg xmlns="http://www.w3.org/2000/svg" width="220" height="220" viewBox="0 0 220 220"><path d="M176 95.2l-36.5 3.2c-2-7.5-4.7-12.6-8.3-15.4 -4.1-3.3-11-4.9-20.8-4.9 -11.3 0-18.8 2.2-22.7 6.6 -3.8 4.4-5.8 12.8-5.8 25.2 0 13.2 2.1 22 6.4 26.4 3.8 3.7 11.3 5.6 22.5 5.6 10 0 16.7-1.5 20.1-4.6 2.8-2.4 5.5-8.1 8.1-16.9L176 124.3c-3.6 21.3-8.7 35.4-15.2 42.3 -8.8 9-25.5 13.4-50 13.4 -26.8 0-44.6-4.6-53.5-13.8 -8.9-9.2-13.3-27.9-13.3-56.1 0-28.2 4.4-46.9 13.3-56.2C66.2 44.6 83.9 40 110.4 40c25 0 42 4.6 50.9 13.7C168 60.7 172.9 74.5 176 95.2z" fill="#FFF"/></svg>
