<svg xmlns="http://www.w3.org/2000/svg" width="32" height="32" viewBox="0 0 32 32"><path class="icon" d="M16 0C7.2 0 0 7.2 0 16s7.2 16 16 16 16-7.2 16-16S24.8 0 16 0zm.3 18.8h1.9s.7.1.7 1.4v3.1s.3.5.7.7c0 0 .4.3-.3.3 0 0-.7 0-1-.3-.3-.4-.3-.7-.3-1v-2s-.2-.7-.3 0v2.7s.1.8.7 1c0 0-1.3.3-1.7-1.4v-2.4c-.1-.4-.3 0-.3 0v2.4c-.4 1.7-1.7 1.4-1.7 1.4.6-.3.7-1 .7-1v-2.8c-.1-.7-.3 0-.3 0v2c0 .3 0 .6-.3 1s-1 .3-1 .3c-.7 0-.3-.3-.3-.3.4-.1.7-.7.7-.7v-1.4c-.1-.7-1.5-.5-2-.7-.5-.2-1.5-1.5-1.7-2.4-.7-.9-1.5-.3-1.5-.3.6-1.1 1.4-.3 1.4-.3 1.7 2.7 3.4 1.7 3.4 1.7v.2c0-1.2.7-1.2.7-1.2h1.8c-3.7 0-6.7-2.3-6.7-5.1 0-1.1.4-2.1 1.2-3-.4-.9-.3-2.7.1-3.1.4-.4 1.9.9 2.5 1.4.9-.3 1.8-.5 2.8-.5.9 0 1.7.1 2.5.4.6-.6 2-1.7 2.4-1.4.4.4.6 1.9.2 2.9 1.2.9 1.7 2 1.7 3.2 0 2.9-3 5.2-6.7 5.2z"/></svg>