<svg xmlns="http://www.w3.org/2000/svg" width="200" height="200" viewBox="0 0 200 200"><path d="M158.6 41.2c1.7 5.2 2.7 13.8 3.1 25.6 0 12.5.1 25.1.1 37.6.5 3.5.7 8 .6 13.7-.3 6.2-.5 12.4-.7 18.6.4 7 .9 14.1 1.5 21.1.2 5.2-.6 7.9-2.4 7.9-1.1 0-3.1-1.3-5.9-3.8-2.8-2.6-4.5-4.7-5-6.5.3-.8.5-1.6.5-2.3.1-2.5-.4-5.5-1.5-9.1-.2-4.4-.3-8.9-.5-13.4-.4-11.1-.5-21.2-.4-30.1 0-12.7.6-23.3 1.7-32 .1-1.1-.2-2.6-.7-4.3-.4-1.2-.8-2.3-1.2-3.3-.4-1-.9-1.9-1.4-2.7-.7.3-2.6 2.6-5.7 7-7.6 10.7-13.3 21.8-17.3 33.2-.5 1.4-3.4 12.3-8.8 32.6-2.1 8-5 12-8.6 12-1.1 0-2.6-1-4.4-3-1.8-2-3.1-4.4-4-7.3.3-8.4.1-17.4-.6-27-.8-9.6-2.2-17.9-4.4-24.8L90 72.6c-3.4.4-7.5 4.8-12.2 13.2-3.8 6.8-7.3 14.5-10.7 23.2-1.5 4.1-3 8.3-4.4 12.4-2.4 5.9-5 17.1-7.6 33.4-1.7 10.1-4.6 15.1-8.7 15.1-1.5-1.1-2.6-1.9-3.3-2.5-2.3-1.9-3.7-3.5-4.1-4.7-.8-2.6-.7-9.1.5-19.4.6-5.5 1.9-14.5 3.8-26.9.7-4.5 1.5-9.2 2.2-13.8 0-3.9.6-9.5 1.8-16.9 1.2-7.4 2.4-14.8 3.6-22.4V53.2c.3-3.6 1.8-5.4 4.4-5.4 1.7 1 2.9 1.8 3.7 2.5 2.8 2.3 4.5 4.6 5.2 6.8-.7.6-1.2 2.3-1.3 5.4-.2 3 .3 7.4 1.3 13.2 3.1-2.5 6.5-6.7 10.4-12.8 6.9-10.7 12.1-16.1 15.5-16.1 2.6 0 4.6 1.2 6 3.5 1.4 2.3 2.8 5.6 4.2 9.9.9 2.8 1.3 5 1.4 6.8.1 1.8.3 3.3.7 4.5 1.4 4.4 2.6 8.3 3.5 11.8.9 3.5 1.5 6.1 1.8 7.9 2.7-5.2 5.6-10.5 8.4-15.7 7.4-13.4 13.2-23.2 17.3-29.6 6.9-10.7 11.7-16.1 14.4-16.1 1.5 0 3.6 1.5 6.3 4.3 2.3 3 3.9 5.3 4.5 7.1" fill="#FFF"/></svg>