<svg xmlns="http://www.w3.org/2000/svg" width="200" height="200" viewBox="0 0 200 200"><style>.a{fill:#fff}</style><path d="M129.7 43.1h12.6L154 55.4l-44.6 83.9h-.5l-45-83.9L76 43.1h13.4v-3.3H19.9v1.4c4.8-.2 9.6.8 14 3 3.9 2.3 7.1 5.7 9 9.8.2.3.4.6.4.9l58.8 104.9h1.7L153.6 63c.1-.7.6-1.4 1.2-1.9 2.1-3.6 4.4-7.1 6.9-10.5 2-2.6 4.5-4.8 7.3-6.4 3.3-1.8 7.1-2.8 10.9-3.1v-1.4h-50.2v3.4z" class="a"/><path class="a" d="M67.1 56.3l41.8 77.5-19.7-77.5zm43.7 0L109 45.6H93.8l-4.6 10.7zm19.1 0h-19.1l-1.9 77.5zm11-10.7h-16.5l5.5 10.7h18.6z"/></svg>