<svg version="1" xmlns="http://www.w3.org/2000/svg" width="346.667" height="346.667" viewBox="0 0 260.000000 260.000000"><path d="M98.7 29.7c-.3.5-.5 2.6-.5 4.8 0 7.5.2 7.1-5.4 7-2.9-.1-5.7 0-6.3.2-.6.2-1 7.1-.9 18.1 0 9.7-.1 18.2-.3 18.8-.2.6-2.9 1-6.3.8l-6-.1v6.3c0 4.4.4 6.4 1.3 6.5.6.1 3.4.2 6.2.2l5 .2V105l.1 12.5h12.7v4c-.1 9 .3 8.4-6.5 8.7l-6.3.3V187h13l-.2 12.8c-.2 21.2.6 18.7-6 18.5-3.2 0-6 .3-6.3.8-.4.5-.5 3.2-.4 6.1l.1 5.3h88.8v-6l-.1-6h-6.2c-5.9 0-6.2-.1-6.3-2.5 0-1.4-.1-8.4-.2-15.5v-13l6.3-.5 6.4-.5v-28l.1-28-6.5-.5-6.4-.5-.1-6v-6l-30.5-.2c-16.8-.1-31-.2-31.5-.2-.7-.1-1.1-10.4-1-31.4V54.5h63l.1 30.6c0 16.8.4 31 .7 31.5.5.8 3.6 1 10.7.5 1.3-.1 1.6-2.1 1.5-12.4V92.5l4-.1c9.4-.4 8.5.3 8.5-6.7v-6.3l-5.2.1c-2.9 0-5.8-.1-6.3-.2-.7-.2-1.1-6.9-1-18.8 0-11.6-.4-18.5-1-18.6-.5-.1-3-.2-5.5-.3-2.5-.2-5-.4-5.6-.4-.6-.1-1-2.6-1-6l.1-5.7-31.2-.3c-17.1-.1-31.4.1-31.6.5zm62.8 122.5l.1 21.8H98.4l.2-21.8c.1-11.9.2-21.8.3-22 0-.1 14.2-.1 31.4 0l31.2.3v21.7zm-38 49.5c0 8.2-.3 15.2-.7 15.8-.5.8-6.8 1.1-11 .6-.5-.1-.8-7.1-.8-15.6V187h12.6l-.1 14.7zm25.5.8c0 17.1.6 15.7-6.5 15.7-6.5.1-6.1 1.2-6.1-15.7V187H149v15.5z"/><path d="M111 85.7c0 6.9.3 7.1 8.7 6.5l4.2-.4-.1-6.2-.1-6.1H111v6.2zM136.9 79.5c-.7.2-.4 12.5.2 12.6H148c.6-.1 1-2.9 1-6.4v-6.3h-6c-3.3 0-6.1 0-6.1.1z"/></svg>