<svg xmlns="http://www.w3.org/2000/svg" width="18" height="32" viewBox="0 0 18 32"><style>.a{fill:#5863f8;}</style><rect x="4" y="14" width="10" height="2" class="a"/><path d="M4 23v-7H2v9h2v5H2v2h14v-2h-2v-5h2v-9h-2v7H4zM8 30H6v-5h2V30zM12 30h-2v-5h2V30z" class="a"/><rect x="6" y="8" width="2" height="2" class="a"/><rect x="10" y="8" width="2" height="2" class="a"/><polygon points="16 8 16 2 14 2 14 0 4 0 4 2 2 2 2 8 0 8 0 10 2 10 2 14 4 14 4 4 14 4 14 14 16 14 16 10 18 10 18 8 " class="a"/></svg>
