<svg xmlns="http://www.w3.org/2000/svg" width="32" height="32" viewBox="0 0 32 32"><path d="M16 0C7.2 0 0 7.2 0 16c0 8.8 7.2 16 16 16 8.8 0 16-7.2 16-16C32 7.2 24.8 0 16 0zM16.3 18.8h0.2 1.7c0 0 0.7 0.1 0.7 1.4v3.1c0 0 0.3 0.5 0.7 0.7 0 0 0.4 0.3-0.3 0.3 0 0-0.7 0-1-0.3 -0.3-0.4-0.3-0.7-0.3-1s0-2 0-2 -0.2-0.7-0.3 0v2 0.7c0 0 0.1 0.8 0.7 1 0 0-1.3 0.3-1.7-1.4v-2.4c-0.1-0.4-0.3 0-0.3 0v2.4c-0.4 1.7-1.7 1.4-1.7 1.4 0.6-0.3 0.7-1 0.7-1V22.9v-2c-0.1-0.7-0.3 0-0.3 0s0 1.7 0 2 0 0.6-0.3 1c-0.3 0.4-1 0.3-1 0.3 -0.7 0-0.3-0.3-0.3-0.3 0.4-0.1 0.7-0.7 0.7-0.7v-1.4c-0.1-0.7-1.5-0.5-2-0.7 -0.5-0.2-1.5-1.5-1.7-2.4C9.8 17.8 9 18.4 9 18.4c0.6-1.1 1.4-0.3 1.4-0.3 1.7 2.7 3.4 1.7 3.4 1.7s0 0.1 0 0.2c0-1.2 0.7-1.2 0.7-1.2h1.7H16.3c-3.7 0-6.7-2.3-6.7-5.1 0-1.1 0.4-2.1 1.2-3 -0.4-0.9-0.3-2.7 0.1-3.1 0.4-0.4 1.9 0.9 2.5 1.4 0.9-0.3 1.8-0.5 2.8-0.5 0.9 0 1.7 0.1 2.5 0.4 0.6-0.6 2-1.7 2.4-1.4 0.4 0.4 0.6 1.9 0.2 2.9C22.5 11.3 23 12.4 23 13.6 23 16.5 20 18.8 16.3 18.8z" class="icon-social"/></svg>
