<?xml version="1.0" encoding="utf-8"?>
<!-- Generator: Adobe Illustrator 16.0.0, SVG Export Plug-In . SVG Version: 6.00 Build 0)  -->
<!DOCTYPE svg PUBLIC "-//W3C//DTD SVG 1.1//EN" "http://www.w3.org/Graphics/SVG/1.1/DTD/svg11.dtd">
<svg version="1.1" id="Calque_1" xmlns="http://www.w3.org/2000/svg" xmlns:xlink="http://www.w3.org/1999/xlink" x="0px" y="0px"
	 width="144px" height="160px" viewBox="0 0 144 160" enable-background="new 0 0 144 160" xml:space="preserve">
<path fill="#FFFFFF" d="M138.715,12.997c1.934,5.979,3.121,15.76,3.553,29.302c0.02,14.336,0.064,28.668,0.111,43.004
	c0.623,3.956,0.852,9.156,0.693,15.602c-0.328,7.104-0.584,14.191-0.785,21.27c0.488,8.04,1.066,16.066,1.682,24.121
	c0.221,5.983-0.709,8.982-2.787,8.982c-1.32,0-3.592-1.472-6.801-4.373c-3.23-2.923-5.156-5.388-5.807-7.434
	c0.342-0.953,0.535-1.811,0.535-2.614c0.115-2.815-0.465-6.281-1.781-10.384c-0.188-5.03-0.395-10.147-0.615-15.344
	c-0.451-12.733-0.615-24.218-0.508-34.455c0.057-14.475,0.699-26.666,1.967-36.57c0.098-1.256-0.18-2.921-0.822-4.971
	c-0.445-1.391-0.928-2.658-1.41-3.767c-0.486-1.087-1.029-2.126-1.58-3.064c-0.803,0.324-3.014,2.993-6.621,8.026
	c-8.725,12.266-15.35,24.93-19.898,37.988c-0.537,1.571-3.932,14.001-10.148,37.28c-2.43,9.142-5.725,13.685-9.895,13.685
	c-1.305,0-2.986-1.122-5.013-3.411c-2.033-2.271-3.585-5.066-4.649-8.379c0.382-9.604,0.16-19.909-0.699-30.901
	c-0.872-11.021-2.576-20.462-5.085-28.321l-3.034-9.444c-3.918,0.465-8.592,5.5-14.02,15.094
	c-4.334,7.715-8.439,16.528-12.328,26.457c-1.771,4.708-3.467,9.442-5.074,14.157c-2.808,6.757-5.729,19.511-8.756,38.22
	C17.191,154.263,13.892,160,9.167,160c-1.733-1.271-2.998-2.209-3.859-2.855c-2.681-2.182-4.244-3.996-4.707-5.425
	c-0.945-2.979-0.781-10.389,0.523-22.204c0.705-6.309,2.184-16.541,4.398-30.718c0.815-5.194,1.676-10.462,2.573-15.817
	c0.007-4.408,0.688-10.826,2.021-19.268c1.34-8.412,2.708-16.962,4.105-25.613c-0.033-3.77-0.033-7.625,0-11.55
	c0.385-4.116,2.078-6.151,5.095-6.151c1.907,1.104,3.316,2.035,4.225,2.842c3.213,2.683,5.208,5.267,6.025,7.783
	c-0.832,0.643-1.354,2.668-1.542,6.139c-0.203,3.455,0.297,8.487,1.524,15.095c3.533-2.808,7.5-7.673,11.948-14.587
	c7.948-12.229,13.884-18.344,17.818-18.344c2.976,0,5.308,1.325,6.947,4.011c1.648,2.664,3.234,6.44,4.833,11.304
	c0.992,3.168,1.536,5.76,1.591,7.811c0.062,2.05,0.331,3.772,0.764,5.192c1.621,5.036,2.947,9.509,3.99,13.44
	c1.035,3.957,1.721,6.934,2.07,8.972c3.164-5.979,6.416-11.95,9.719-17.919c8.525-15.293,15.164-26.529,19.91-33.778
	C117.057,6.133,122.592,0,125.727,0c1.705,0,4.129,1.667,7.27,4.964C136.162,8.273,138.074,10.948,138.715,12.997"/>
</svg>
