<svg xmlns="http://www.w3.org/2000/svg" width="220" height="220" viewBox="0 0 220 220"><style>.a{fill:#FFF;}</style><path d="M219.9 27.5v1.9c-5.2 0.3-10.4 1.7-15 4.2 -3.9 2.2-7.4 5.2-10.1 8.8 -3.5 4.6-6.6 9.4-9.5 14.4 -0.8 0.7-1.4 1.6-1.6 2.6L115.2 192.5h-2.3L32.1 48.3c-0.1-0.5-0.3-0.9-0.6-1.3 -2.6-5.7-6.9-10.4-12.3-13.5C13.2 30.5 6.6 29.1 0 29.4V27.5h95.4v4.6H77L60.4 49l61.9 115.4h0.7l61.3-115.4 -16.1-16.9H150.9V27.5H220 219.9z" class="a"/><polygon points="64.8 50.3 95.2 50.3 122.3 156.8 " class="a"/><polygon points="95.2 50.3 124.9 50.3 122.4 35.6 101.6 35.6 " class="a"/><polygon points="124.9 50.3 151.1 50.3 122.3 156.8 " class="a"/><polygon points="151.1 50.3 176.7 50.3 166.3 35.6 143.6 35.6 " class="a"/></svg>
