<svg xmlns="http://www.w3.org/2000/svg" width="220" height="220" viewBox="0 0 220 220"><path d="M214.6 187.9c-83.3-18.4-144.3-17-185.5-10.7 8.5-2.7 19.7-4.9 32.7-6.7v-5.8c-5.4-0.9-11.2-3.1-17-6.3 -10.3-6.7-17.9-17-19.7-26.4 4.9-1.8 11.7-1.8 18.4 0.5l6.3 1.8 -2.7-5.8c-5.4-11.2-7.6-22.4-5.8-30.5 9 2.7 18.8 11.2 26.4 22.9l3.1 4.9 1.8-5.4c2.2-5.8 4.9-10.3 8.5-12.5 5.8 6.3 9 16.6 8.1 27.8 0 4.5-0.9 8.5-2.2 12.1l-4 11.2 8.5-7.6c2.2-1.8 4-3.6 6.3-4.9 7.2-4.5 15.2-6.3 21.1-5.8 -2.2 5.8-7.6 11.6-14.8 16.1l-0.4 0.4c-3.1 1.8-7.6 4.9-10.8 5.8l0.9 5.8c0.4 0 51.1-0.9 66.3 0.5h2.7V80.9l-26.4-13.9V24l-3.6 0.4c-0.5 0.5-42.1 9.4-42.1 48.4v26c2.2 2.2 4 5.4 5.8 8.5V72.8c0-14.3 5.8-26 17.9-34 6.3-4 12.5-6.3 16.1-7.2v34.9L107.6 72.8v57.3h28.7V74.2l20.6 10.8v78.4c-12.1-0.9-36.3-0.9-51.1-0.9 0 0 0.4-0.4 0.9-0.4l0.9-0.4c9.9-5.8 17-14.8 17.9-22.8v-2.3l-2.3-0.9c-7.6-2.7-18.8-0.4-28.7 5.8l0 0c0.5-1.8 0.5-3.6 0.9-5.8 0.5-13.4-4-26.4-12.1-34l-1.3-1.3 -1.8 1.3c-4.5 2.2-8.1 6.3-10.8 11.6 -9-11.6-19.7-19.7-29.6-21.5l-2.7-0.4 -0.9 2.2c-2.7 8.5-1.8 20.2 3.1 31.8 -7.2-0.9-13.4-0.5-18.4 2.2l-2.2 0.9v2.2c1.3 11.6 10.3 24.2 22.9 32.7 2.2 1.4 4 2.3 6.3 3.1C16.6 171.8 0.9 182.6 0 183.5l2.2 4.9c33.6-8.5 88.7-15.2 169.4-2.7 -47-2.2-82-0.4-102.6 4.5L70.3 196c18.4-4.5 59.1-8.5 149.2-1.3l0.4-5.8c-0.4 0-3.1-0.5-5.4-0.9V187.9zM130.4 123.4h-17V77.3l17-4.5V123.4z" fill="#FFF"/></svg>
